<?xml version="1.0" encoding="UTF-8"?>
<svg version="1.1" viewBox="0 0 2048 2048" width="564" height="564" xmlns="http://www.w3.org/2000/svg">
<path transform="translate(0)" d="m0 0h2048v2048h-2048z"/>
<path transform="translate(1499,392)" d="m0 0h19l14 3 12 5 10 6 10 8 9 10 8 13 6 16 6 23 15 58 14 52 10 38 1 9-4 11-6 8-8 4-21 6-142 32-121 27-124 29-49 11-240 54-67 16-120 27-41 9-8 2 924 1 12 3 8 6 5 8 2 9v644l-2 18-5 20-6 15-8 14-10 13-12 13-12 10-15 10-15 7-20 6-9 2-10 1h-981l-17-3-21-7-17-9-16-12-13-12-10-11-7-10-8-15-6-18-4-19-1-9-1-606-18-73-16-64-12-45-5-25 1-16 4-16 8-16 12-14 12-10 11-6 24-8 68-16 239-56 60-15 68-16 217-51 111-27 124-29 90-21 70-17 16-4z" fill="#fff"/>
<path transform="translate(462,1136)" d="m0 0h1117v404l-2 15-6 16-6 11-9 11-10 8-15 8-16 5-7 1-48 1h-911l-23-2-17-5-11-6-9-7-9-9-9-14-7-19-2-13z"/>
<path transform="translate(1253,505)" d="m0 0 4 1 30 30 8 7 20 20 7 8 55 55 8 7 15 15-1 3-60 14-53 12-80 18-6-1-35-35-7-8-18-18v-2l-4-2-19-19-8-7-27-27-7-8-16-16 1-2 78-18 63-15 48-11z"/>
<path transform="translate(994,566)" d="m0 0 5 1 18 18 4 5 8 7 16 16 8 7 23 23 7 8 7 7 7 8 12 12 8 7 16 16 7 6v2l-14 4-36 8-129 30-13 3h-7l-22-22-7-8-38-38-8-7-32-32-7-8-27-27 128-30 43-10z"/>
<path transform="translate(736,627)" d="m0 0 5 1 22 22 7 8 16 16 8 7 50 50 4 5 20 20 8 7 4 4v2l-22 5-80 18-93 21-5-1-137-137 2-2 42-10 85-21z"/>
<path transform="translate(665,924)" d="m0 0h205l-1 5-14 27-19 38-10 21-24 48-8 15-2 5-2 1h-205l2-6 12-25 21-41 10-19 20-41 13-26z"/>
<path transform="translate(931,924)" d="m0 0h205l-1 6-10 19-14 27-39 78-14 29-2 1h-195l-10-1 2-6 11-22 12-22 22-44 11-23 20-40z"/>
<path transform="translate(1196,924)" d="m0 0h207l-5 12-10 19-14 27-41 82-8 17-3 3h-197l-8-1 8-17 8-16 12-23 12-24 11-23 8-17 10-19z"/>
<path transform="translate(1506,445)" d="m0 0 9 1 10 5 6 7 5 12 11 41 13 48 13 52-15 4-55 12-30 7-10 2-8-7-17-16-33-33-7-8-35-35-8-7-13-13-7-8-8-7-7-8-3-4 6-2 54-13 71-17z"/>
<path transform="translate(1463,924)" d="m0 0h116v160h-186l-9-1 2-6 11-23 10-19 11-23 8-16 15-31 10-19 11-21z"/>
<path transform="translate(477,689)" d="m0 0 7 1 12 13 7 6v2l4 2 16 17 64 64 7 6v2l4 2 12 13 10 10-1 2-33 7-30 7-63 14-43 10h-5l-3-9-18-71-12-48-1-5v-15l4-9 8-7 15-5z"/>
<path transform="translate(462,924)" d="m0 0h142l-2 6-27 54-11 23-23 46-10 19-6 11-2 1h-61z"/>
</svg>
